<svg width="217" height="17" viewBox="0 0 217 17" fill="none" xmlns="http://www.w3.org/2000/svg">
<rect x="35" width="182" height="17" rx="8.5" fill="#DFDFDF"/>
<path fill-rule="evenodd" clip-rule="evenodd" d="M84.1696 0H8.5C3.80558 0 0 3.80558 0 8.5C0 13.1944 3.80558 17 8.5 17H84.1696V0Z" fill="url(#paint0_linear)"/>
<path d="M73.043 13V9.17969H71.9473V8.18359H73.043V4.46875H75.5625C76.3164 4.46875 76.9844 4.63672 77.5664 4.97266C78.1523 5.30859 78.6055 5.78516 78.9258 6.40234C79.2461 7.01953 79.4062 7.72656 79.4062 8.52344V8.95117C79.4062 9.75977 79.2441 10.4707 78.9199 11.084C78.5996 11.6973 78.1406 12.1699 77.543 12.502C76.9492 12.834 76.2676 13 75.498 13H73.043ZM75.8672 9.17969H74.5254V11.8164H75.4805C76.2734 11.8164 76.877 11.5703 77.291 11.0781C77.709 10.582 77.918 9.86523 77.918 8.92773V8.51758C77.918 7.5918 77.7168 6.88477 77.3145 6.39648C76.9121 5.9082 76.3281 5.66406 75.5625 5.66406H74.5254V8.18359H75.8672V9.17969ZM85.5293 11.0137H82.2246L81.5332 13H79.9922L83.2148 4.46875H84.5449L87.7734 13H86.2266L85.5293 11.0137ZM82.6406 9.81836H85.1133L83.877 6.2793L82.6406 9.81836ZM86.0508 2.3125C86.0508 2.74219 85.9258 3.09961 85.6758 3.38477C85.4297 3.66992 85.1191 3.8125 84.7441 3.8125C84.5918 3.8125 84.459 3.79687 84.3457 3.76562C84.2363 3.73047 84.0781 3.6543 83.8711 3.53711C83.668 3.41992 83.5234 3.34961 83.4375 3.32617C83.3555 3.30273 83.2637 3.29102 83.1621 3.29102C83.0137 3.29102 82.8867 3.34766 82.7812 3.46094C82.6797 3.57031 82.6289 3.71484 82.6289 3.89453L81.7559 3.84766C81.7559 3.41797 81.8789 3.05664 82.125 2.76367C82.375 2.4707 82.6855 2.32422 83.0566 2.32422C83.2793 2.32422 83.5469 2.41211 83.8594 2.58789C84.1758 2.76367 84.4355 2.85156 84.6387 2.85156C84.7871 2.85156 84.9141 2.79688 85.0195 2.6875C85.125 2.57422 85.1777 2.42578 85.1777 2.24219L86.0508 2.3125ZM91.7344 13V4.46875H94.6582C95.623 4.46875 96.3574 4.66211 96.8613 5.04883C97.3652 5.43555 97.6172 6.01172 97.6172 6.77734C97.6172 7.16797 97.5117 7.51953 97.3008 7.83203C97.0898 8.14453 96.7812 8.38672 96.375 8.55859C96.8359 8.68359 97.1914 8.91992 97.4414 9.26758C97.6953 9.61133 97.8223 10.0254 97.8223 10.5098C97.8223 11.3105 97.5645 11.9258 97.0488 12.3555C96.5371 12.7852 95.8027 13 94.8457 13H91.7344ZM93.2168 9.15039V11.8164H94.8633C95.3281 11.8164 95.6914 11.7012 95.9531 11.4707C96.2148 11.2402 96.3457 10.9199 96.3457 10.5098C96.3457 9.62305 95.8926 9.16992 94.9863 9.15039H93.2168ZM93.2168 8.06055H94.6699C95.1309 8.06055 95.4902 7.95703 95.748 7.75C96.0098 7.53906 96.1406 7.24219 96.1406 6.85938C96.1406 6.4375 96.0195 6.13281 95.7773 5.94531C95.5391 5.75781 95.166 5.66406 94.6582 5.66406H93.2168V8.06055ZM104.08 11.0137H100.775L100.084 13H98.543L101.766 4.46875H103.096L106.324 13H104.777L104.08 11.0137ZM101.191 9.81836H103.664L102.428 6.2793L101.191 9.81836ZM102.873 2.18359H104.496L102.873 3.95898H101.73L102.873 2.18359ZM114.064 13H112.582L108.779 6.94727V13H107.297V4.46875H108.779L112.594 10.5449V4.46875H114.064V13ZM120.223 8.08398H121.09C121.527 8.08008 121.873 7.9668 122.127 7.74414C122.385 7.52148 122.514 7.19922 122.514 6.77734C122.514 6.37109 122.406 6.05664 122.191 5.83398C121.98 5.60742 121.656 5.49414 121.219 5.49414C120.836 5.49414 120.521 5.60547 120.275 5.82812C120.029 6.04688 119.906 6.33398 119.906 6.68945H118.482C118.482 6.25195 118.598 5.85352 118.828 5.49414C119.062 5.13477 119.387 4.85547 119.801 4.65625C120.219 4.45312 120.686 4.35156 121.201 4.35156C122.053 4.35156 122.721 4.56641 123.205 4.99609C123.693 5.42188 123.938 6.01562 123.938 6.77734C123.938 7.16016 123.814 7.52148 123.568 7.86133C123.326 8.19727 123.012 8.45117 122.625 8.62305C123.094 8.7832 123.449 9.03516 123.691 9.37891C123.938 9.72266 124.061 10.1328 124.061 10.6094C124.061 11.375 123.797 11.9844 123.27 12.4375C122.746 12.8906 122.057 13.1172 121.201 13.1172C120.381 13.1172 119.709 12.8984 119.186 12.4609C118.662 12.0234 118.4 11.4414 118.4 10.7148H119.824C119.824 11.0898 119.949 11.3945 120.199 11.6289C120.453 11.8633 120.793 11.9805 121.219 11.9805C121.66 11.9805 122.008 11.8633 122.262 11.6289C122.516 11.3945 122.643 11.0547 122.643 10.6094C122.643 10.1602 122.51 9.81445 122.244 9.57227C121.979 9.33008 121.584 9.20898 121.061 9.20898H120.223V8.08398ZM129.252 13H127.834V6.15039L125.742 6.86523V5.66406L129.07 4.43945H129.252V13Z" fill="white"/>
<defs>
<linearGradient id="paint0_linear" x1="4.30733e-07" y1="8.99999" x2="202.408" y2="9" gradientUnits="userSpaceOnUse">
<stop offset="0.0214521" stop-color="#ED3029"/>
<stop offset="0.995049" stop-color="#FCB813"/>
</linearGradient>
</defs>
</svg>
